<svg id="SvgjsSvg1079" width="550" height="550" xmlns="http://www.w3.org/2000/svg" version="1.1" xmlns:xlink="http://www.w3.org/1999/xlink" xmlns:svgjs="http://svgjs.com/svgjs"><defs id="SvgjsDefs1080"></defs><g id="SvgjsG1081"><svg xmlns="http://www.w3.org/2000/svg" enable-background="new 0 0 2500 2500" viewBox="0 0 2500 2500" width="550" height="550"><path fill="#060f11" d="M786.83 394.26c-.75 0-1.5-.26-2.11-.79-14.58-12.79-29.04-15.98-29.18-16.01-1.72-.37-2.83-2.06-2.47-3.79.37-1.73 2.05-2.82 3.78-2.47.65.14 16.17 3.5 32.09 17.46 1.33 1.16 1.46 3.19.3 4.51C788.61 393.89 787.72 394.26 786.83 394.26zM1148.79 445.91c-.46 0-.93-.1-1.38-.31-1.6-.76-2.27-2.67-1.5-4.27 9.46-19.73 27.87-27.96 28.65-28.3 1.62-.7 3.49.03 4.21 1.65.71 1.62-.03 3.5-1.64 4.21-.17.07-17.05 7.68-25.45 25.21C1151.12 445.24 1149.98 445.91 1148.79 445.91zM1027.38 367.84c-.39 0-.78-.07-1.17-.22-1.64-.64-2.46-2.5-1.81-4.14 3.82-9.76 9.66-16.75 9.91-17.04 1.14-1.35 3.15-1.52 4.5-.38 1.35 1.13 1.52 3.15.39 4.5-.06.06-5.43 6.51-8.85 15.25C1029.86 367.07 1028.65 367.84 1027.38 367.84z" class="color060f11 svgShape"></path><path fill="#ffffff" d="M269.06,782.87v630.08c0,24.87,20.16,45.02,45.02,45.02h987.36c24.87,0,45.02-20.16,45.02-45.02V782.87
								c0-24.87-20.16-45.02-45.02-45.02H314.09C289.22,737.85,269.06,758.01,269.06,782.87z" class="colorfff svgShape"></path><path fill="#060f11" d="M1301.45,1461.18H314.09c-26.59,0-48.22-21.63-48.22-48.22V782.87c0-26.59,21.63-48.22,48.22-48.22
								h987.37c26.59,0,48.22,21.63,48.22,48.22v630.08C1349.67,1439.54,1328.04,1461.18,1301.45,1461.18z M314.09,741.05
								c-23.06,0-41.82,18.76-41.82,41.82v630.08c0,23.06,18.76,41.82,41.82,41.82h987.37c23.06,0,41.83-18.76,41.83-41.82V782.87
								c0-23.06-18.76-41.82-41.83-41.82H314.09z" class="color060f11 svgShape"></path><path fill="#ffffff" d="M1228.04,1140.91H361.23c-6.46,0-11.69-5.23-11.69-11.69v-151.2c0-6.46,5.23-11.69,11.69-11.69h866.81
								c6.46,0,11.69,5.23,11.69,11.69v151.2C1239.73,1135.67,1234.5,1140.91,1228.04,1140.91z" class="colorfff svgShape"></path><path fill="#ffd400" d="M698.25,1140.91H390.14c-22.42,0-40.6-21.18-40.6-47.3v-79.98c0-26.12,18.18-47.3,40.6-47.3h374.8
								L698.25,1140.91z" class="colorffd400 svgShape"></path><path fill="#060f11" d="M1197.01,1144.11H392.26c-25.32,0-45.93-20.6-45.93-45.93v-89.13c0-25.32,20.6-45.92,45.93-45.92h804.74
								c25.32,0,45.92,20.6,45.92,45.92v89.13C1242.93,1123.5,1222.33,1144.11,1197.01,1144.11z M392.26,969.52
								c-21.8,0-39.53,17.73-39.53,39.53v89.13c0,21.8,17.73,39.53,39.53,39.53h804.74c21.8,0,39.53-17.73,39.53-39.53v-89.13
								c0-21.8-17.73-39.53-39.53-39.53H392.26z" class="color060f11 svgShape"></path><path fill="#ff452d" d="M945.75 1053.41c0 8.29-.67 15.78-2.01 22.47-1.33 6.69-3.52 12.38-6.54 17.09-3.02 4.71-6.95 8.32-11.79 10.83-4.84 2.51-10.77 3.77-17.77 3.77-7.11 0-13-1.22-17.65-3.65-4.65-2.43-8.34-5.94-11.07-10.51-2.73-4.57-4.64-10.16-5.74-16.77-1.1-6.6-1.65-14.08-1.65-22.42 0-8.24.68-15.71 2.05-22.43 1.36-6.71 3.55-12.42 6.58-17.13 3.02-4.71 6.95-8.32 11.8-10.83 4.84-2.51 10.74-3.77 17.69-3.77 7.11 0 13.01 1.22 17.69 3.65 4.68 2.44 8.38 5.94 11.11 10.51 2.73 4.57 4.63 10.16 5.7 16.77C945.21 1037.59 945.75 1045.07 945.75 1053.41zM924.49 1054.46c0-4.92-.13-9.27-.4-13.04-.27-3.77-.68-7.05-1.25-9.83-.56-2.78-1.26-5.13-2.08-7.06-.83-1.93-1.83-3.46-3.01-4.61-1.18-1.15-2.52-1.96-4.01-2.45-1.5-.48-3.16-.72-4.98-.72-3.16 0-5.76.76-7.82 2.29-2.06 1.52-3.69 3.81-4.89 6.86-1.2 3.05-2.05 6.85-2.53 11.39-.48 4.55-.72 9.84-.72 15.89 0 7.38.29 13.49.88 18.33.59 4.84 1.51 8.69 2.77 11.55 1.26 2.86 2.88 4.87 4.85 6.02 1.98 1.15 4.36 1.72 7.14 1.72 2.09 0 3.93-.33 5.54-1 1.61-.67 3.01-1.67 4.21-3.01 1.21-1.33 2.21-3.02 3.01-5.05.8-2.03 1.46-4.38 1.97-7.06.51-2.67.86-5.7 1.04-9.07C924.39 1062.24 924.49 1058.52 924.49 1054.46zM1014.38 1027.42c0 4.23-.47 8.04-1.41 11.43-.94 3.4-2.39 6.3-4.37 8.71-1.98 2.41-4.5 4.28-7.58 5.62-3.08 1.34-6.75 2.01-11.03 2.01-4.55 0-8.34-.67-11.39-2.01-3.05-1.34-5.49-3.19-7.3-5.57-1.82-2.38-3.1-5.23-3.85-8.55-.75-3.32-1.12-6.98-1.12-10.99 0-4.01.46-7.69 1.37-11.03.91-3.34 2.34-6.24 4.29-8.71 1.95-2.46 4.46-4.37 7.54-5.74 3.08-1.36 6.78-2.05 11.11-2.05 4.76 0 8.68.72 11.75 2.17 3.08 1.45 5.5 3.4 7.26 5.86 1.76 2.46 2.99 5.32 3.69 8.59C1014.03 1020.41 1014.38 1023.83 1014.38 1027.42zM992.47 1105.16c-.48.64-.98 1.16-1.48 1.57-.51.4-1.14.74-1.88 1-.75.27-1.66.45-2.73.56-1.07.11-2.38.16-3.93.16-1.77 0-3.17-.11-4.21-.32-1.05-.21-1.8-.54-2.25-.96-.45-.43-.64-.92-.56-1.48.08-.56.41-1.24 1-2.05l73.97-101.33c.48-.59.96-1.1 1.45-1.53.48-.43 1.11-.77 1.88-1.04.77-.27 1.7-.45 2.77-.56 1.07-.11 2.38-.16 3.93-.16 1.77 0 3.17.11 4.22.32 1.04.21 1.79.54 2.24.96s.63.94.52 1.52c-.11.59-.43 1.26-.96 2.01L992.47 1105.16zM998.49 1027.98c0-2.94-.16-5.44-.48-7.5-.32-2.06-.8-3.73-1.45-5.01-.64-1.28-1.5-2.22-2.57-2.81-1.07-.59-2.33-.88-3.77-.88-1.33 0-2.51.28-3.53.84s-1.86 1.47-2.53 2.73c-.67 1.26-1.16 2.89-1.48 4.89-.32 2.01-.48 4.45-.48 7.34 0 3.32.19 6.03.56 8.14.37 2.11.91 3.77 1.6 4.98.7 1.2 1.55 2.03 2.57 2.49 1.01.46 2.19.68 3.53.68 1.55 0 2.83-.31 3.85-.92 1.01-.61 1.83-1.57 2.45-2.85.61-1.28 1.05-2.93 1.32-4.93S998.49 1030.76 998.49 1027.98zM1076.96 1079.33c0 4.23-.47 8.04-1.4 11.43-.94 3.4-2.39 6.3-4.37 8.71-1.98 2.41-4.51 4.28-7.58 5.62-3.08 1.34-6.75 2.01-11.03 2.01-4.55 0-8.34-.67-11.39-2.01-3.05-1.34-5.48-3.19-7.3-5.57-1.82-2.38-3.11-5.23-3.85-8.55-.75-3.32-1.12-6.98-1.12-10.99 0-4.01.45-7.69 1.36-11.03.91-3.34 2.34-6.24 4.29-8.7 1.95-2.46 4.46-4.37 7.54-5.74 3.07-1.36 6.78-2.05 11.11-2.05 4.76 0 8.68.72 11.75 2.17 3.08 1.44 5.5 3.4 7.26 5.86 1.76 2.46 2.99 5.32 3.69 8.58C1076.61 1072.32 1076.96 1075.74 1076.96 1079.33zM1061.07 1079.89c0-2.94-.16-5.44-.48-7.5-.32-2.06-.8-3.73-1.44-5.01-.64-1.28-1.5-2.22-2.57-2.81-1.07-.59-2.33-.88-3.77-.88-1.34 0-2.52.28-3.53.84-1.02.56-1.86 1.47-2.53 2.73-.67 1.26-1.16 2.89-1.48 4.89-.32 2.01-.48 4.45-.48 7.34 0 3.32.19 6.03.56 8.14s.91 3.77 1.61 4.97c.69 1.2 1.55 2.03 2.57 2.49 1.02.46 2.19.68 3.53.68 1.55 0 2.83-.31 3.85-.92 1.02-.61 1.83-1.57 2.45-2.85.61-1.28 1.06-2.93 1.32-4.93S1061.07 1082.67 1061.07 1079.89z" class="colorff452d svgShape"></path><polyline fill="#ffc1a4" points="2114.05 1977.95 2035.69 1915.03 1956.27 2023.06 2058.84 2085.29" class="colorffc1a4 svgShape"></polyline><polygon points="1999.04 2047.53 2094.93 1962.6 2071.89 1944.5" fill="#000000" class="color000 svgShape"></polygon><path fill="#ff73ed" d="M2090.31,2236.85c0.16,0.13,0.37,0.26,0.55,0.36l20.63,12.79l124.67-201.15l-20.14-12.47
															l-6.44-4c-41.31-23.3-96.69-63.74-96.69-63.74l-72.49,118.44l12.62,10.7c10.22,8.68,17.06,20.16,20.03,32.56
															c2.97,12.44,2.08,25.78-3.13,38.13C2058.73,2193.17,2067.48,2222.34,2090.31,2236.85z" class="colorff73ed svgShape"></path><path d="M2090.31,2236.85c0.16,0.13,0.37,0.26,0.55,0.36l20.63,12.79l124.67-201.15l-20.11-12.5l-0.02,0.03
															L2090.31,2236.85z" fill="#000000" class="color000 svgShape"></path><path fill="#060606" d="M2071.45 2128.16c-1.14 0-2.25-.54-2.96-1.5-.97-1.33-.93-3.14.1-4.43l21-26.33-25.25 8.38c-1.52.51-3.21-.04-4.14-1.37-.93-1.32-.88-3.09.12-4.36l27.61-35.17c1.25-1.58 3.54-1.86 5.13-.62 1.59 1.25 1.87 3.54.62 5.13l-20.11 25.62 25.41-8.43c1.53-.5 3.22.05 4.15 1.38.92 1.33.87 3.1-.14 4.37l-20.4 25.58 26.23-9.89c1.89-.72 4 .24 4.71 2.13.71 1.89-.24 4-2.13 4.71l-38.66 14.57C2072.32 2128.08 2071.88 2128.16 2071.45 2128.16zM2075.2 2163.45c-.39 0-.78-.06-1.17-.19-1.9-.65-2.93-2.7-2.29-4.61.08-.24 8.6-24.58 40.67-17.75 1.97.42 3.23 2.36 2.82 4.33-.42 1.98-2.37 3.23-4.34 2.81-25.52-5.42-31.96 12.18-32.23 12.93C2078.13 2162.49 2076.71 2163.45 2075.2 2163.45z" class="color060606 svgShape"></path><path fill="#141323" d="M2096.09,1925.62l-134.38,182.2l-337.81-263.33l-19.37-15.09c-22.86-13.53-40.77-32.86-52.5-55.35
													c-14.14-27.07-19.33-58.67-13.43-90.11l60.71-322.78l224.73-15.36l-62.34,336.86L2096.09,1925.62z" class="color141323 svgShape"></path><path d="M1756.93,1641.94l-155.98,185.25c-21.13-13.4-37.78-31.85-48.91-53.15c60.03-49.21,194.07-156.35,194.07-156.35
													L1756.93,1641.94z" fill="#000000" class="color000 svgShape"></path><path fill="#ffffff" d="M1961.47,1971.89c-0.63,0-1.27-0.19-1.83-0.58l-286.57-200.91
													c-32.42-22.73-46.82-63.56-35.83-101.59l65.4-226.41c0.49-1.7,2.27-2.68,3.96-2.19c1.7,0.49,2.67,2.26,2.18,3.96
													l-65.4,226.41c-10.23,35.41,3.18,73.42,33.36,94.58l286.57,200.91c1.45,1.01,1.8,3.01,0.79,4.45
													C1963.46,1971.41,1962.47,1971.89,1961.47,1971.89z" class="colorfff svgShape"></path><polyline fill="#ffc1a4" points="1261.29 2124.37 1326.01 2047.48 1219.86 1965.58 1155.26 2066.68" class="colorffc1a4 svgShape"></polyline><polygon points="1194.4 2007.77 1277.08 2105.61 1295.71 2082.99" fill="#000000" class="color000 svgShape"></polygon><path fill="#ff73ed" d="M1003.01,2094.62c-0.14,0.16-0.27,0.36-0.38,0.54l-13.26,20.33l198.21,129.3l12.93-19.84
															l4.15-6.34c24.25-40.76,65.97-95.18,65.97-95.18l-116.72-75.22l-10.99,12.37c-8.91,10.01-20.55,16.59-33.01,19.26
															c-12.51,2.68-25.82,1.48-38.05-4.02C1047.41,2064.06,1018.05,2072.14,1003.01,2094.62z" class="colorff73ed svgShape"></path><path d="M1003.01,2094.62c-0.14,0.16-0.27,0.36-0.38,0.54l-13.26,20.33l198.21,129.3l12.96-19.82l-0.03-0.02
															L1003.01,2094.62z" fill="#000000" class="color000 svgShape"></path><path fill="#060606" d="M1129.44 2121.02c-1.51 0-2.92-.94-3.45-2.45l-13.67-38.99c-.55-1.55.01-3.28 1.37-4.22 1.35-.94 3.17-.85 4.43.2l25.84 21.61-7.79-25.44c-.47-1.54.12-3.21 1.46-4.11 1.34-.9 3.11-.81 4.35.22l34.52 28.42c1.56 1.28 1.78 3.58.5 5.14-1.28 1.56-3.59 1.78-5.15.5l-25.15-20.7 7.84 25.6c.47 1.55-.12 3.22-1.47 4.12-1.35.89-3.13.79-4.36-.24l-25.09-20.98 9.28 26.45c.67 1.91-.33 3.99-2.24 4.66C1130.25 2120.95 1129.84 2121.02 1129.44 2121.02zM1094.87 2121.75c-.28 0-.56-.03-.85-.1-1.97-.47-3.18-2.44-2.71-4.4 6.02-25.4-11.43-32.24-12.18-32.52-1.88-.7-2.86-2.8-2.16-4.69.69-1.89 2.76-2.86 4.66-2.18.24.09 24.36 9.17 16.79 41.08C1098.02 2120.62 1096.52 2121.75 1094.87 2121.75z" class="color060606 svgShape"></path><path fill="#141323" d="M1950.84,1313.73l-5.62,57.57c-7.72,79.13-46.92,151.83-108.79,201.76l-213.26,172.1
													l-307.14,354.53l-160.77-124.04l283.73-338.64c5.96-7.97,12.29-15.66,18.99-23.02l254.36-263.59L1950.84,1313.73z" class="color141323 svgShape"></path><path fill="#ffffff" d="M1553.3,1521.29c-0.79,0-1.57-0.29-2.19-0.87c-1.29-1.21-1.35-3.23-0.14-4.52l99.25-105.72
													c1.21-1.28,3.23-1.35,4.52-0.14c1.29,1.21,1.35,3.23,0.14,4.52l-99.25,105.72
													C1555,1520.95,1554.15,1521.29,1553.3,1521.29z" class="colorfff svgShape"></path><path fill="#ffc1a4" d="M1446.06,1092.23l-51.04,158.49l-165.12-30.43l-35.04,120.3l223.95,54.78
																c53.37-2.14,84.59-18.61,104.14-68.32l65.63-166.87L1446.06,1092.23z" class="colorffc1a4 svgShape"></path><polygon fill="#f7b094" points="1415.68 1154.93 1542.18 1278.18 1570.76 1210.68" class="colorf7b094 svgShape"></polygon><path fill="#ff73ed" d="M1576.62,941.4l-62.92,21.98c-29.47,10.29-53.29,32.41-65.71,61.04
																c-21.23,48.91-51.99,120.26-50.82,120.26c1.79,0,171.14,98.39,171.14,98.39l106.14-223.62L1576.62,941.4z" class="colorff73ed svgShape"></path><path fill="#ff73ed" d="M1583.11,938.78l172.79-63.7c32.32-11.92,59.02-6.31,82.01,10.97
																c21.39,16.07,35.49,40.02,40.8,66.24l82.76,393.5l-381.83,20.73l-42.57-352.41
																C1533.12,981.36,1552.17,950.19,1583.11,938.78z" class="colorff73ed svgShape"></path><path fill="#ffc1a4" d="M2124.39,1055.71c0,32.63-15.5,63.8-42.4,83.47l-238.7,174.57l-24.83,15.74
																c-27.27,23.74-69.63,60.4-73.23,62.91c-5.39,3.73-15.6,4.31-20.18-0.31c-7.6-7.63,2.37-19.47,3.46-20.72
																c-1.22,1.19-14.96,14.04-23.84,4.21c-9.36-10.38,5.46-25.17,5.46-25.17s-20.89,15.74-30.86,1.46
																c-8.95-12.92,3.7-26.83,6.68-28.96c-3.29,2-18.79,9.12-30.39-6.55c-10.01-13.46,46.97-60.41,46.97-60.41l-30.59,0.44
																c-7.56-1.53-12.99-8.21-12.92-15.94c0.03-4.88,2.24-9.23,5.7-12.14c2.71-2.27,6.11-3.63,9.84-3.73l80.89-15.23
																l17.13-8.07l198.17-130.37l-65.9-25.78l50.57-132.58l108.23,48.97c31.07,14.08,53.21,42.57,59.15,76.14
																C2123.85,1043.7,2124.39,1049.71,2124.39,1055.71z" class="colorffc1a4 svgShape"></path><polygon fill="#f7b094" points="1923.63 1054.38 1999.31 932.4 1971.44 919.78" class="colorf7b094 svgShape"></polygon><path fill="#ff73ed" d="M1743.1,879.51l52.09-19.53c20.45-6.29,43.94-2.66,64.02,4.72l116.53,42.82l-60.9,173.75
																l-101.57-39.98c-40.58-13.54-68.21-51.18-68.97-93.95L1743.1,879.51z" class="colorff73ed svgShape"></path><path fill="#ffffff" d="M1914.84 1084.46c-.39 0-.79-.07-1.17-.22l-101.57-39.98c-17.33-5.78-33-16.18-45.15-30.03-1.17-1.33-1.04-3.35.29-4.51 1.32-1.17 3.34-1.04 4.51.29 11.4 13 26.11 22.76 42.53 28.24l101.73 40.04c1.65.65 2.45 2.5 1.81 4.15C1917.32 1083.7 1916.12 1084.46 1914.84 1084.46zM1564.46 1244.03c-1.6 0-2.98-1.19-3.17-2.81l-17.02-140.95c-.21-1.75 1.04-3.35 2.79-3.56 1.74-.21 3.35 1.04 3.56 2.79l17.02 140.95c.21 1.75-1.04 3.35-2.79 3.56C1564.71 1244.03 1564.58 1244.03 1564.46 1244.03zM1894.77 1034.83c-.29 0-.59-.04-.88-.12-1.7-.49-2.68-2.26-2.19-3.96l28.86-100.65c.48-1.69 2.25-2.68 3.95-2.19 1.7.49 2.68 2.26 2.19 3.96l-28.86 100.65C1897.45 1033.92 1896.17 1034.83 1894.77 1034.83zM1542.49 1194.06c-.56 0-1.12-.15-1.64-.46l-100.92-60.44c-1.52-.91-2.01-2.87-1.1-4.39.91-1.52 2.87-2.01 4.39-1.1l100.92 60.44c1.52.91 2.01 2.87 1.1 4.39C1544.64 1193.5 1543.58 1194.06 1542.49 1194.06zM1880.03 1446.48c-.54 0-1.08-.13-1.58-.42-20.42-11.61-32.23-35.93-28.72-59.16.26-1.74 1.91-2.94 3.64-2.68 1.75.26 2.95 1.89 2.68 3.64-3.07 20.34 7.67 42.47 25.55 52.64 1.53.87 2.07 2.82 1.2 4.36C1882.23 1445.89 1881.15 1446.48 1880.03 1446.48zM1292.25 1968.78c-.68 0-1.37-.22-1.95-.67-1.4-1.08-1.66-3.09-.58-4.49l258.76-335.29c8.37-11.45 18.56-21.46 30.24-29.68l201.92-142.06c1.45-1.01 3.44-.67 4.46.78 1.02 1.44.67 3.44-.77 4.46l-201.92 142.06c-11.11 7.81-20.8 17.33-28.81 28.29l-258.81 335.35C1294.15 1968.35 1293.21 1968.78 1292.25 1968.78zM1312.17 2040.08c-.74 0-1.49-.26-2.1-.78l-82.27-71.3c-1.33-1.16-1.48-3.18-.32-4.51 1.16-1.34 3.18-1.47 4.51-.32l82.27 71.3c1.33 1.16 1.48 3.18.32 4.51C1313.95 2039.7 1313.06 2040.08 1312.17 2040.08z" class="colorfff svgShape"></path><path fill="#060606" d="M1456.77,669.71c-4.64,21.31-3.12,44.38,6.83,63.78c9.96,19.41,28.92,34.6,50.54,37.49
											c11.68,1.56,24.3-0.68,33.33-8.25c11.41-9.57,15-27.31,8.19-40.55" class="color060606 svgShape"></path><path fill="#ffc1a4" d="M1642.85,1010.26c-61.8,13.06-65.9-46.8-46.5-74.07l-5.02-32.63l-3.83-24.76l5.77-8.11
														l63.63-89.23l38.22,150.66C1695.12,932.12,1709.7,996.15,1642.85,1010.26z" class="colorffc1a4 svgShape"></path><path fill="#060606" d="M1623.52,861.37c-3.22,18.32-21.2,34.05-32.19,42.19l-3.83-24.76l5.77-8.11L1623.52,861.37z" class="color060606 svgShape"></path><circle cx="1562.72" cy="788.93" r="97.35" fill="#ffc1a4" class="colorffc1a4 svgShape"></circle><path fill="#060606" d="M1558.45 787.9c.02 6.06-3.37 11.01-7.57 11.07-4.22.01-7.7-4.88-7.76-10.91-.04-6.11 3.35-11.06 7.57-11.06C1554.89 776.94 1558.37 781.82 1558.45 787.9zM1508.37 788.85c.02 6.06-3.37 11.01-7.57 11.07-4.22.01-7.7-4.88-7.76-10.91-.04-6.11 3.35-11.06 7.57-11.06C1504.81 777.89 1508.29 782.77 1508.37 788.85zM1670.02 835.02c-5.71-.69-12.99-84.14-32.27-70.26-21.48 15.49 6.14 13.28 6.14 13.28l-25.86 7.19-18.27-31.66c0 0-45.42 19.75-75.39-27.11 0 0-50.87 17.79-66.3-39.37-15.43-57.13 38.92-74.3 86.45-77.91 23.94-1.81 36.71 12.96 43.49 28.07 7.49-3.84 51.46-21.52 86.33 6.09C1712.6 673.64 1751.2 797.94 1670.02 835.02z" class="color060606 svgShape"></path><circle cx="1653.47" cy="764.58" r="26.72" fill="#ffc1a4" class="colorffc1a4 svgShape"></circle><path fill="#060606" d="M1525.92,844.73c-2.78,0-5.94,0-9.01-0.9c-3.82-1.12-6.83-3.53-8.26-6.62
											c-2.49-5.41,0.15-11.07,2.09-15.21c4.06-8.69,7.25-17.83,9.48-27.17c0.41-1.72,2.14-2.78,3.85-2.37
											c1.72,0.41,2.78,2.13,2.37,3.85c-2.33,9.76-5.66,19.32-9.91,28.4c-1.82,3.89-3.23,7.32-2.07,9.83
											c0.64,1.39,2.22,2.57,4.24,3.16c2.19,0.64,4.75,0.64,7.22,0.64c1.77,0,3.2,1.43,3.2,3.2
											C1529.12,843.3,1527.69,844.73,1525.92,844.73z" class="color060606 svgShape"></path><path fill="#ffffff" d="M1578.66 740.99c-5.53 0-11.28-.56-16.76-2.35-9.95-3.27-17.37-10.32-19.85-18.85-.5-1.7.48-3.47 2.18-3.96 1.7-.49 3.47.48 3.96 2.18 1.87 6.41 7.88 11.99 15.71 14.56 7.68 2.52 16.02 2.26 23.88 1.6 1.83-.11 3.31 1.16 3.45 2.92.15 1.76-1.16 3.3-2.92 3.45C1585.26 740.79 1582 740.99 1578.66 740.99zM1501.67 715.48c-9.34 0-17.4-6.72-21.51-13.91-4.63-8.11-5.8-17.57-6.82-25.91-.22-1.75 1.03-3.35 2.78-3.57 1.81-.21 3.35 1.03 3.57 2.78 1 8.12 2.04 16.52 6.03 23.52 3.31 5.8 10.26 11.59 17.74 10.56 1.78-.24 3.37.98 3.6 2.73.24 1.75-.99 3.36-2.73 3.6C1503.43 715.42 1502.54 715.48 1501.67 715.48zM1682.8 708.87c-1.58 0-2.96-1.18-3.17-2.79-1.61-12.6-8.68-24.63-18.91-32.16-1.42-1.05-1.73-3.05-.68-4.47 1.05-1.42 3.04-1.73 4.47-.68 11.61 8.55 19.63 22.2 21.46 36.5.22 1.75-1.02 3.35-2.77 3.58C1683.07 708.87 1682.94 708.87 1682.8 708.87z" class="colorfff svgShape"></path><circle cx="1573.07" cy="843.57" r="11.62" fill="#060606" class="color060606 svgShape"></circle><path fill="#060f11" d="M1734.66,1398.53c-4.55,0-9-1.3-11.89-4.23c-3.92-3.96-4.37-8.77-3.21-13.29
												c-2.28,0.9-4.76,1.44-7.22,1.42c-3.9-0.1-7.28-1.69-10.04-4.73c-5.4-5.97-4.49-12.85-2.01-18.48
												c-3.87,1.38-8.28,2.26-12.51,1.58c-4.6-0.74-8.34-3.14-11.12-7.14c-6.17-8.88-3.75-17.94,0-24.42
												c-7.42,0.84-16.44-1.27-23.67-10.98c-9.53-12.83,22.86-43.61,40.66-58.98l-21.64,0.32c-0.23,0.01-0.45-0.02-0.67-0.06
												c-9.08-1.79-15.61-9.82-15.53-19.09c0.07-5.65,2.58-10.96,6.9-14.58c3.26-2.73,7.23-4.27,11.53-4.47l80.65-15.13
												c1.75-0.32,3.41,0.82,3.73,2.55c0.32,1.73-0.82,3.41-2.56,3.73l-80.88,15.17c-0.16,0.03-0.32,0.05-0.48,0.05
												c-2.95,0.1-5.68,1.14-7.89,2.99c-2.89,2.42-4.57,5.97-4.61,9.75c-0.05,6.08,4.17,11.37,10.06,12.68l30.24-0.44
												c1.45,0.03,2.58,0.82,3.05,2.1c0.47,1.27,0.08,2.71-0.97,3.57c-26.28,21.64-51.52,49.21-46.46,56.02
												c10.99,14.77,25.52,6.08,26.13,5.7c1.46-0.9,3.37-0.49,4.33,0.93c0.96,1.42,0.63,3.34-0.74,4.36
												c-0.15,0.11-14.19,12.68-5.92,24.58c1.77,2.55,4.02,4.01,6.87,4.47c8.63,1.38,19.35-6.56,19.46-6.64
												c1.34-1,3.23-0.8,4.33,0.47c1.1,1.27,1.03,3.16-0.15,4.35c-0.12,0.13-12.57,12.8-5.38,20.74
												c1.56,1.72,3.33,2.58,5.44,2.63c5.49,0.12,11.88-5.05,13.9-7.07c1.23-1.22,3.21-1.24,4.46-0.05
												c1.26,1.2,1.33,3.17,0.17,4.46c-0.1,0.11-9.45,10.61-3.69,16.43c3.34,3.39,11.91,2.83,16.11-0.07
												c4.25-2.95,51.34-44.43,69.12-60.16c1.32-1.17,3.35-1.05,4.51,0.28c1.17,1.32,1.05,3.34-0.27,4.51
												c-2.62,2.32-64.29,56.85-69.72,60.62C1743.83,1397.24,1739.2,1398.53,1734.66,1398.53z" class="color060f11 svgShape"></path><path fill="#060f11" d="M1728.64 1374.43c-.85 0-1.7-.34-2.33-1.01-1.21-1.29-1.15-3.31.14-4.52l34.33-32.25c1.29-1.21 3.32-1.14 4.52.14 1.21 1.29 1.15 3.31-.14 4.52l-34.33 32.25C1730.22 1374.15 1729.43 1374.43 1728.64 1374.43zM1710.16 1353.6c-.91 0-1.82-.39-2.45-1.14-1.14-1.35-.96-3.37.4-4.5l36.63-30.71c1.35-1.13 3.36-.96 4.51.4 1.13 1.35.96 3.37-.4 4.5l-36.63 30.71C1711.61 1353.36 1710.89 1353.6 1710.16 1353.6zM1685.93 1326.06c-.91 0-1.82-.39-2.45-1.14-1.14-1.35-.96-3.37.39-4.51l37.28-31.27c1.35-1.13 3.36-.96 4.5.39 1.14 1.35.96 3.37-.39 4.51l-37.28 31.27C1687.39 1325.82 1686.66 1326.06 1685.93 1326.06z" class="color060f11 svgShape"></path><g fill="#000000" class="color000 svgShape"><path fill="#dbe5d8" d="M1131.39,1159.8c-9.54,7.2-20.72,12.08-33.35,14.1c-1.28,0.23-2.57,0.41-3.88,0.55
											c-64.1,7.26-139.3-59.01-167.95-148.04c-28.68-89.02,0.06-167.07,64.18-174.33c64.1-7.26,139.3,59.01,167.95,148.04
											C1180.63,1069.37,1168.18,1132,1131.39,1159.8z" opacity=".1" class="colordbe5d8 svgShape"></path><path d="M1222.72,1381.42c-10.45,5.3-23.22,1.12-28.52-9.33l-96.62-198.08c14.84-2.38,27.51-9.81,38.73-18.27l95.75,197.12
										C1237.35,1363.33,1233.17,1376.1,1222.72,1381.42z" fill="#000000" class="color000 svgShape"></path><path d="M1084.52,1178.19c-63.07,0-133.77-65.1-161.36-150.8c-17.36-53.89-14.43-106.67,7.83-141.16
										c13.96-21.63,34.37-34.53,59.03-37.32c65.42-7.38,142.31,59.98,171.36,150.24c21.99,68.31,10.71,133.9-28.06,163.21l0,0
										c-10.2,7.7-21.9,12.64-34.77,14.7c-1.3,0.23-2.66,0.43-4.05,0.57C1091.2,1178.01,1087.87,1178.19,1084.52,1178.19z
										 M1000.16,854.73c-3.17,0-6.3,0.17-9.42,0.53c-22.69,2.57-41.49,14.48-54.38,34.43c-21.24,32.91-23.9,83.65-7.12,135.73
										c28.16,87.51,101.94,152.94,164.55,145.85c1.26-0.13,2.48-0.31,3.68-0.52c11.89-1.9,22.63-6.45,31.99-13.5
										c36.6-27.67,46.99-90.42,25.83-156.15C1128.53,917.95,1060.54,854.73,1000.16,854.73z M1131.39,1159.8h0.04H1131.39z" fill="#000000" class="color000 svgShape"></path><path fill="#ffc1a4" d="M1268.72,1227.44l-38.81-7.15c-14.77-17.72-30.79-52.4-53.84-53.52l-39.22-1.92
									c-14.04-0.69-25.81,10.52-25.81,24.58l0,0c0,11.94,8.58,22.16,20.34,24.23l37.58,9.32l53.46,117.88L1268.72,1227.44z" class="colorffc1a4 svgShape"></path><path fill="#ffc1a4" d="M1128.05,1317.16c5.58,7.7,17.12,9.26,23.03,9.54l1.46,2.51c-2.13,2.84-4.88,8.02-3.48,15.03
										c2.17,10.96,18.7,10.62,18.7,10.62s-13.33,15.16,0.24,24.84c7.91,5.67,36.7-4.69,44.49-28.79
										c7.79-24.09-14.48-26.51-14.48-26.51s6.53-10,5.21-18.73c-1.32-8.74-13.95-13.63-13.95-13.63s9.56-12.3,4.48-22.22
										c-5.1-9.96-16.42-7.45-16.42-7.45s15.19-16.5,1.54-32.87c-20.08-24.02-55.21,3.85-68.58,28.38
										c-4.7,8.68-6.73,16.95-4.36,22.39c4.26,9.74,19.25,12.19,25.2,12.76l1.05,1.82
										C1128.96,1298.71,1121.98,1308.78,1128.05,1317.16z" class="colorffc1a4 svgShape"></path><path fill="#060606" d="M1174.04,1384.4c-3.22,0-5.94-0.71-7.91-2.11c-1.43-1.03-1.77-3.03-0.74-4.46
										c1.02-1.43,3.02-1.77,4.46-0.74c1.65,1.18,6.06,1.46,12.22-0.56c9.69-3.19,22.66-12.07,27.36-26.61
										c2.15-6.63,1.99-11.94-0.47-15.76c-3.61-5.62-11.25-6.57-11.32-6.58c-1.1-0.13-2.06-0.82-2.53-1.82
										c-0.47-1-0.4-2.18,0.21-3.11c0.06-0.09,5.85-9.11,4.73-16.51c-0.85-5.63-8.91-9.94-11.95-11.12
										c-0.94-0.37-1.65-1.16-1.92-2.13c-0.27-0.97-0.07-2.01,0.55-2.81c0.09-0.11,8.24-10.84,4.16-18.81
										c-3.87-7.58-12.53-5.86-12.9-5.78c-1.37,0.29-2.76-0.34-3.45-1.55c-0.69-1.21-0.52-2.72,0.42-3.74
										c0.54-0.59,13.09-14.68,1.44-28.65c-5.01-6-11.3-8.67-18.82-7.93c-16.53,1.63-35.6,19.48-44.49,35.79
										c-4.5,8.3-6.04,15.43-4.24,19.58c0.71,1.62-0.03,3.5-1.65,4.21c-1.62,0.7-3.5-0.03-4.21-1.65
										c-2.64-6.05-1.05-14.99,4.48-25.19c9.55-17.53,30.14-37.18,49.48-39.1c9.58-0.94,18,2.58,24.36,10.19
										c9.57,11.47,6.77,23.78,2.27,31.66c4.64,0.72,9.89,3.18,13,9.25c4.25,8.31,0.18,17.57-2.64,22.37
										c4.37,2.36,11.33,7.21,12.43,14.45c0.96,6.33-1.56,13-3.55,17.08c3.53,1.17,8.36,3.56,11.48,8.37
										c3.58,5.52,3.99,12.67,1.22,21.25c-5.43,16.8-19.81,26.88-31.45,30.71C1180.42,1383.8,1177.01,1384.4,1174.04,1384.4z" class="color060606 svgShape"></path><path fill="#060606" d="M1149.05 1347.43c-1.5 0-2.83-1.05-3.13-2.57-1.27-6.36.36-11.49 2.46-15.15-7.02-.66-17.34-2.99-22.91-10.68-1.04-1.43-.72-3.43.71-4.47 1.43-1.04 3.43-.71 4.46.71 4.91 6.77 16.04 8.01 20.59 8.23 1.08.05 2.07.65 2.61 1.59l1.46 2.51c.64 1.11.56 2.49-.2 3.52-1.95 2.6-4.03 6.88-2.91 12.49.34 1.73-.78 3.42-2.51 3.76C1149.47 1347.41 1149.25 1347.43 1149.05 1347.43zM1180.58 1343.79c-1.04 0-2.07-.51-2.68-1.45-.97-1.48-.55-3.46.92-4.43 7.94-5.2 16.79-15.73 16.88-15.84 1.13-1.35 3.15-1.53 4.5-.4 1.35 1.13 1.53 3.15.4 4.5-.39.46-9.54 11.36-18.28 17.09C1181.79 1343.62 1181.18 1343.79 1180.58 1343.79zM1163.25 1316.65c-1.07 0-2.12-.54-2.73-1.52-.92-1.5-.46-3.47 1.04-4.4 8.76-5.4 25.36-20.87 25.53-21.02 1.28-1.2 3.3-1.14 4.52.16 1.21 1.29 1.14 3.31-.16 4.52-.7.65-17.23 16.05-26.53 21.79C1164.4 1316.5 1163.82 1316.65 1163.25 1316.65zM1150.96 1284.51c-1.32 0-2.55-.82-3.01-2.13-.59-1.67.28-3.49 1.94-4.08 6.94-2.47 20.6-14.04 25.27-18.28 1.3-1.19 3.32-1.09 4.52.22 1.19 1.31 1.09 3.33-.21 4.52-.72.66-17.86 16.18-27.44 19.58C1151.68 1284.46 1151.32 1284.51 1150.96 1284.51z" class="color060606 svgShape"></path></g><g fill="#000000" class="color000 svgShape"><path fill="#4a4ddc" d="M609.05 1304.3c0 1.1-.05 2.02-.14 2.77-.09.75-.23 1.37-.41 1.86-.19.49-.41.85-.69 1.07-.27.22-.6.33-.96.33h-32.48c-1.2 0-2.22-.36-3.04-1.07-.82-.71-1.23-1.87-1.23-3.48v-64.35c0-.37.12-.69.36-.99.24-.29.63-.53 1.18-.71.55-.18 1.29-.33 2.22-.44.93-.11 2.09-.16 3.48-.16 1.42 0 2.59.05 3.5.16.91.11 1.64.26 2.19.44.55.18.94.42 1.18.71.24.29.35.62.35.99v57.01h22.29c.36 0 .69.1.96.3.27.2.5.53.69.99.18.46.32 1.06.41 1.81C609.01 1302.28 609.05 1303.21 609.05 1304.3zM679.32 1274.07c0 5.88-.73 11.14-2.19 15.77-1.46 4.64-3.63 8.57-6.52 11.8-2.88 3.23-6.45 5.7-10.71 7.39-4.25 1.7-9.17 2.55-14.76 2.55-5.51 0-10.32-.72-14.43-2.16s-7.53-3.64-10.27-6.6c-2.74-2.96-4.79-6.72-6.16-11.28-1.37-4.56-2.05-9.97-2.05-16.21 0-5.73.73-10.89 2.19-15.47 1.46-4.58 3.63-8.48 6.52-11.69 2.88-3.21 6.45-5.68 10.71-7.39 4.25-1.71 9.19-2.57 14.81-2.57 5.37 0 10.1.71 14.21 2.14s7.54 3.61 10.3 6.57c2.76 2.96 4.84 6.69 6.24 11.2C678.61 1262.62 679.32 1267.94 679.32 1274.07zM664.2 1274.84c0-3.72-.29-7.11-.88-10.16-.58-3.05-1.58-5.66-2.98-7.83-1.41-2.17-3.28-3.85-5.61-5.04-2.33-1.19-5.26-1.78-8.76-1.78-3.54 0-6.5.67-8.87 2-2.37 1.33-4.29 3.11-5.75 5.34-1.46 2.23-2.49 4.83-3.09 7.8-.6 2.97-.91 6.12-.91 9.45 0 3.87.29 7.35.88 10.43.58 3.09 1.57 5.72 2.96 7.91 1.38 2.19 3.25 3.86 5.59 5.01 2.33 1.15 5.28 1.73 8.82 1.73 3.54 0 6.5-.66 8.87-1.97 2.37-1.32 4.29-3.1 5.75-5.37 1.46-2.26 2.49-4.9 3.09-7.91C663.9 1281.44 664.2 1278.23 664.2 1274.84zM747.93 1304.96c.44 1.31.71 2.35.82 3.12.11.77-.04 1.34-.44 1.72-.4.38-1.12.62-2.14.71-1.02.09-2.43.14-4.22.14-1.86 0-3.32-.03-4.35-.08-1.04-.06-1.83-.16-2.38-.33-.55-.16-.93-.39-1.15-.69-.22-.29-.4-.67-.55-1.15l-4.76-14.24h-26.61l-4.49 13.86c-.15.51-.34.94-.57 1.29-.24.35-.62.62-1.15.82-.53.2-1.28.34-2.24.41-.97.07-2.24.11-3.81.11-1.68 0-2.99-.06-3.94-.16-.95-.11-1.61-.37-1.97-.79-.36-.42-.49-1.01-.38-1.78.11-.77.38-1.79.82-3.07l21.85-62.87c.22-.62.47-1.12.77-1.5.29-.38.76-.68 1.4-.88.64-.2 1.52-.33 2.66-.38 1.13-.06 2.63-.08 4.49-.08 2.15 0 3.87.03 5.15.08 1.28.05 2.27.18 2.98.38.71.2 1.22.5 1.53.9.31.4.57.95.8 1.64L747.93 1304.96zM715.4 1252.99h-.06l-10.02 30.12h20.1L715.4 1252.99zM816.72 1273.85c0 6.5-.85 12.06-2.54 16.67-1.7 4.62-4.14 8.39-7.31 11.31-3.18 2.92-7.03 5.07-11.58 6.44-4.54 1.37-9.96 2.05-16.24 2.05h-16.92c-1.2 0-2.22-.36-3.04-1.07-.82-.71-1.23-1.87-1.23-3.48v-61.77c0-1.61.41-2.77 1.23-3.48.82-.71 1.83-1.07 3.04-1.07h18.18c6.31 0 11.67.74 16.07 2.22 4.4 1.48 8.11 3.67 11.12 6.57 3.01 2.9 5.3 6.49 6.87 10.76C815.93 1263.28 816.72 1268.23 816.72 1273.85zM801.82 1274.34c0-3.36-.39-6.48-1.18-9.37-.79-2.88-2.05-5.38-3.78-7.5-1.73-2.12-3.96-3.77-6.68-4.96s-6.29-1.78-10.71-1.78h-7.28v48.19h7.5c3.94 0 7.26-.51 9.96-1.53 2.7-1.02 4.96-2.56 6.76-4.63 1.81-2.06 3.16-4.63 4.05-7.7C801.37 1282.01 801.82 1278.43 801.82 1274.34zM843 1308.35c0 .37-.12.69-.35.99-.24.29-.63.53-1.18.71-.55.18-1.28.33-2.19.44-.91.11-2.08.16-3.5.16-1.39 0-2.55-.06-3.48-.16-.93-.11-1.67-.26-2.22-.44-.55-.18-.94-.42-1.18-.71-.24-.29-.36-.62-.36-.99v-66.92c0-.37.12-.69.36-.99.24-.29.64-.53 1.21-.71.56-.18 1.3-.33 2.22-.44.91-.11 2.06-.16 3.45-.16 1.42 0 2.59.05 3.5.16.91.11 1.64.26 2.19.44.55.18.94.42 1.18.71.24.29.35.62.35.99V1308.35zM916.88 1305.29c0 .84-.15 1.59-.44 2.24-.29.66-.69 1.2-1.18 1.64-.49.44-1.08.76-1.75.96-.68.2-1.36.3-2.06.3h-6.13c-1.28 0-2.38-.13-3.31-.38-.93-.26-1.79-.72-2.58-1.4-.79-.67-1.54-1.59-2.27-2.74-.73-1.15-1.55-2.64-2.47-4.46l-17.63-33.13c-1.02-1.97-2.06-4.1-3.12-6.38-1.06-2.28-2.01-4.5-2.85-6.65h-.11c.15 2.63.26 5.25.33 7.86.07 2.61.11 5.3.11 8.08v37.08c0 .36-.1.69-.3.98-.2.29-.55.54-1.04.74-.49.2-1.16.36-2 .47s-1.92.16-3.23.16c-1.28 0-2.34-.06-3.18-.16-.84-.11-1.5-.26-1.97-.47-.47-.2-.8-.45-.99-.74-.18-.29-.27-.62-.27-.98v-63.69c0-1.71.5-3 1.51-3.86 1.01-.86 2.24-1.29 3.7-1.29h7.72c1.38 0 2.56.12 3.5.36.95.24 1.8.63 2.54 1.18s1.45 1.31 2.11 2.27c.66.97 1.33 2.16 2.03 3.59l13.8 25.9c.8 1.57 1.6 3.11 2.38 4.63.79 1.52 1.54 3.03 2.27 4.55.73 1.52 1.44 3 2.13 4.46.69 1.46 1.37 2.92 2.03 4.38h.05c-.11-2.55-.19-5.22-.25-7.99-.05-2.77-.08-5.42-.08-7.94v-33.24c0-.37.11-.69.33-.99.22-.29.59-.55 1.1-.77.51-.22 1.18-.37 2.03-.47.84-.09 1.92-.14 3.23-.14 1.24 0 2.28.05 3.12.14.84.09 1.48.25 1.94.47.46.22.77.47.96.77.18.29.27.62.27.99V1305.29zM989.17 1250.47c0 1.06-.05 1.97-.14 2.74-.09.77-.22 1.38-.38 1.84-.16.46-.37.77-.6.96-.24.18-.52.27-.85.27-.47 0-1.24-.33-2.3-.98-1.06-.66-2.47-1.37-4.22-2.14-1.75-.77-3.84-1.48-6.27-2.14-2.43-.66-5.25-.99-8.46-.99-3.43 0-6.54.59-9.31 1.78s-5.15 2.87-7.12 5.04c-1.97 2.17-3.49 4.78-4.55 7.83-1.06 3.05-1.59 6.42-1.59 10.1 0 4.05.54 7.62 1.62 10.71 1.07 3.09 2.58 5.67 4.52 7.75 1.93 2.08 4.26 3.65 6.98 4.71 2.72 1.06 5.72 1.59 9.01 1.59 1.61 0 3.19-.18 4.76-.55 1.57-.37 3.03-.91 4.38-1.64v-16.43h-13.42c-.66 0-1.17-.41-1.53-1.23-.36-.82-.55-2.22-.55-4.19 0-1.02.05-1.88.14-2.57.09-.69.23-1.25.41-1.67.19-.42.4-.73.66-.93.25-.2.55-.3.87-.3h23.93c.59 0 1.11.1 1.56.3.46.2.86.5 1.2.9.35.4.61.89.8 1.45.18.57.27 1.21.27 1.94v28.2c0 1.1-.19 2.05-.58 2.87-.38.82-1.17 1.47-2.35 1.94-1.19.47-2.66.97-4.41 1.48-1.75.51-3.57.95-5.45 1.31-1.88.37-3.78.64-5.7.82-1.92.18-3.84.27-5.78.27-5.66 0-10.73-.81-15.2-2.44-4.47-1.63-8.26-3.98-11.36-7.07-3.1-3.09-5.48-6.85-7.12-11.28-1.65-4.44-2.47-9.47-2.47-15.09 0-5.81.88-11.02 2.63-15.64 1.75-4.62 4.23-8.54 7.45-11.77 3.21-3.23 7.09-5.7 11.64-7.42 4.55-1.71 9.61-2.57 15.2-2.57 3.07 0 5.86.21 8.38.63 2.52.42 4.72.93 6.6 1.53 1.88.6 3.44 1.25 4.68 1.94 1.24.69 2.11 1.3 2.6 1.81.49.51.85 1.23 1.07 2.16C989.06 1247.26 989.17 1248.64 989.17 1250.47zM1019.18 1302.44c0 3.4-.59 5.68-1.78 6.85-1.18 1.17-3.31 1.75-6.38 1.75s-5.19-.57-6.35-1.73c-1.17-1.15-1.75-3.33-1.75-6.54 0-3.43.59-5.73 1.78-6.9 1.18-1.17 3.33-1.75 6.44-1.75 3.03 0 5.13.58 6.3 1.73C1018.6 1296.99 1019.18 1299.19 1019.18 1302.44zM1049.14 1302.44c0 3.4-.59 5.68-1.78 6.85-1.18 1.17-3.31 1.75-6.38 1.75-3.07 0-5.19-.57-6.35-1.73-1.17-1.15-1.75-3.33-1.75-6.54 0-3.43.59-5.73 1.78-6.9 1.18-1.17 3.33-1.75 6.44-1.75 3.03 0 5.13.58 6.3 1.73C1048.55 1296.99 1049.14 1299.19 1049.14 1302.44zM1079.09 1302.44c0 3.4-.59 5.68-1.78 6.85-1.18 1.17-3.31 1.75-6.38 1.75-3.07 0-5.19-.57-6.35-1.73-1.17-1.15-1.75-3.33-1.75-6.54 0-3.43.59-5.73 1.78-6.9 1.18-1.17 3.33-1.75 6.44-1.75 3.03 0 5.13.58 6.3 1.73C1078.51 1296.99 1079.09 1299.19 1079.09 1302.44z" class="color4a4ddc svgShape"></path></g><g fill="#000000" class="color000 svgShape"><path fill="#ffffff" d="M1249.22,504.19c0,24.62-9.24,46.94-24.22,63.03c-2.92,5.85-25.73,24.67-30,25.93
						c-15.56,17.94-385.81,55.21-484.54-9.36c-31.94-18.28-59.31-58.25-59.31-100.27c0-60.35,45.03-109.33,100.56-109.33
						c1.48,0,3,0.05,4.49,0.15c16.73-69.7,75.08-121.13,144.47-121.13c60.51,0,112.58,39.09,136.08,95.3
						c14.22-9.99,31.13-15.79,49.29-15.79c45.35,0,82.93,36.07,89.79,83.26C1217.06,420.44,1249.22,458.22,1249.22,504.19z" class="colorfff svgShape"></path></g><g fill="#000000" class="color000 svgShape"><path fill="#e7ebfb" d="M1249.22,504.19c0,24.61-9.24,46.94-24.24,63.01c-2.9,5.85-25.73,24.68-29.99,25.94
						c-15.55,17.94-385.8,55.21-484.53-9.36c-14.14-8.12-27.38-20.42-37.74-35.32c101.42,62.93,467.23,26.01,482.69,8.18
						c4.26-1.26,27.07-20.09,29.99-25.94c14.98-16.08,24.22-38.4,24.22-63.01c0-16.81-4.28-32.48-11.73-45.88
						C1227.97,434.88,1249.22,466.83,1249.22,504.19z" class="colore7ebfb svgShape"></path></g><g fill="#000000" class="color000 svgShape"><path fill="#060f11" d="M934.79,623.42c-78.29,0-179.54-6.53-226.08-36.96c-35.71-20.43-60.75-62.8-60.75-102.94
						c0-62.05,46.54-112.53,103.75-112.53c0.66,0,1.34,0.01,2.01,0.03C771.99,299.62,832.06,250,900.67,250
						c58.54,0,112.11,36.64,137.49,93.7c14.48-9.3,30.95-14.19,47.88-14.19c45.86,0,84.44,35,92.58,83.58
						c42.24,5.91,73.79,44.61,73.79,91.11c0,24.55-8.81,47.58-24.81,64.91c-3.83,6.56-24.36,23.85-30.87,26.79
						c-12.83,10.67-114.39,23.5-212.72,26.71C969.45,623.08,952.71,623.42,934.79,623.42z M751.71,377.38
						c-53.68,0-97.36,47.61-97.36,106.13c0,37.96,23.72,78.05,57.69,97.49c55.88,36.54,194.23,37.74,271.77,35.2
						c109.78-3.58,202.33-17.73,208.76-25.16c0.4-0.46,0.92-0.8,1.51-0.97c3.62-1.21,25.45-19.08,28.04-24.29
						c0.14-0.27,0.31-0.53,0.52-0.75c15.07-16.18,23.36-37.78,23.36-60.85c0-44.11-30.32-80.67-70.53-85.05
						c-1.45-0.16-2.61-1.28-2.82-2.72c-6.78-46.66-43.22-80.52-86.63-80.52c-16.89,0-33.3,5.26-47.45,15.21
						c-0.79,0.55-1.8,0.72-2.72,0.46c-0.93-0.27-1.69-0.95-2.07-1.84c-23.71-56.7-75.96-93.33-133.13-93.33
						c-66.46,0-124.59,48.8-141.36,118.68c-0.36,1.52-1.8,2.57-3.32,2.44C754.58,377.43,753.12,377.38,751.71,377.38z" class="color060f11 svgShape"></path></g><g fill="#000000" class="color000 svgShape"><path fill="#ff452d" d="M1008.86,477.46c-4.04,0-7.31-3.27-7.31-7.31c0-40.91-33.28-74.18-74.18-74.18
						c-4.04,0-7.31-3.27-7.31-7.31s3.27-7.31,7.31-7.31c48.96,0,88.8,39.84,88.8,88.8C1016.17,474.19,1012.9,477.46,1008.86,477.46z
						" class="colorff452d svgShape"></path></g><g fill="#000000" class="color000 svgShape"><path fill="#4a4ddc" d="M941.99,544.34c-48.96,0-88.8-39.84-88.8-88.8c0-4.04,3.27-7.31,7.31-7.31s7.31,3.27,7.31,7.31
						c0,40.91,33.28,74.18,74.18,74.18c4.04,0,7.31,3.27,7.31,7.31C949.3,541.06,946.03,544.34,941.99,544.34z" class="color4a4ddc svgShape"></path></g><g fill="#000000" class="color000 svgShape"><path fill="#ff452d" d="M1028.66,470.91l-15.15,18.58c-2.4,2.94-6.89,2.94-9.29,0l-15.15-18.58c-3.19-3.91-0.41-9.78,4.64-9.78
						h30.3C1029.06,461.13,1031.85,466.99,1028.66,470.91z" class="colorff452d svgShape"></path></g><g fill="#000000" class="color000 svgShape"><path fill="#060f11" d="M402.58,741.63c-1.77,0-3.2-1.43-3.2-3.2v-35.38c0-15.9,12.94-28.84,28.84-28.84h500.74
						c12.37,0,22.44-10.07,22.44-22.44v-31.68c0-1.77,1.43-3.2,3.2-3.2c1.77,0,3.2,1.43,3.2,3.2v31.68
						c0,15.9-12.94,28.84-28.84,28.84H428.22c-12.37,0-22.44,10.07-22.44,22.44v35.38C405.78,740.2,404.35,741.63,402.58,741.63z" class="color060f11 svgShape"></path></g><g fill="#000000" class="color000 svgShape"><circle cx="372.24" cy="845.43" r="22.71" fill="#ff452d" class="colorff452d svgShape"></circle><path fill="#060f11" d="M372.24,871.33c-14.28,0-25.9-11.62-25.9-25.9s11.62-25.9,25.9-25.9s25.9,11.62,25.9,25.9
					S386.53,871.33,372.24,871.33z M372.24,825.92c-10.76,0-19.51,8.75-19.51,19.51s8.75,19.51,19.51,19.51s19.51-8.75,19.51-19.51
					S383,825.92,372.24,825.92z" class="color060f11 svgShape"></path></g><g fill="#000000" class="color000 svgShape"><circle cx="442.61" cy="845.43" r="22.71" fill="#ffd400" class="colorffd400 svgShape"></circle><path fill="#060f11" d="M442.61,871.33c-14.28,0-25.9-11.62-25.9-25.9s11.62-25.9,25.9-25.9s25.9,11.62,25.9,25.9
					S456.89,871.33,442.61,871.33z M442.61,825.92c-10.75,0-19.51,8.75-19.51,19.51s8.75,19.51,19.51,19.51
					c10.76,0,19.51-8.75,19.51-19.51S453.36,825.92,442.61,825.92z" class="color060f11 svgShape"></path></g><g fill="#000000" class="color000 svgShape"><circle cx="512.97" cy="845.43" r="22.71" fill="#0081ff" class="color0081ff svgShape"></circle><path fill="#060f11" d="M512.98,871.33c-14.28,0-25.9-11.62-25.9-25.9s11.62-25.9,25.9-25.9c14.28,0,25.9,11.62,25.9,25.9
					S527.26,871.33,512.98,871.33z M512.98,825.92c-10.76,0-19.51,8.75-19.51,19.51s8.75,19.51,19.51,19.51
					c10.76,0,19.51-8.75,19.51-19.51S523.73,825.92,512.98,825.92z" class="color060f11 svgShape"></path></g><g fill="#000000" class="color000 svgShape"><circle cx="890.64" cy="1646.65" r="128.52" fill="#e7ebfb" class="colore7ebfb svgShape"></circle><path fill="#b7bef8" d="M933.45,1767.84c-39.32,13.86-80.84,7.49-113.22-13.69c25.8,8.3,54.4,8.47,81.89-1.23
					c66.94-23.63,102.05-97.05,78.39-163.98c-9.73-27.62-27.97-49.82-50.76-64.7c36.97,11.83,68.16,40.19,82.1,79.61
					C1035.47,1670.76,1000.35,1744.21,933.45,1767.84z" class="colorb7bef8 svgShape"></path><path fill="#060f11" d="M890.76,1778.37c-54.29,0-105.24-33.83-124.32-87.86c-24.18-68.48,11.85-143.87,80.34-168.06
					c33.17-11.72,68.93-9.81,100.66,5.36c31.74,15.17,55.67,41.8,67.39,74.97c11.72,33.17,9.82,68.92-5.36,100.67
					c-15.18,31.74-41.8,55.67-74.98,67.39C920.05,1775.95,905.28,1778.37,890.76,1778.37z M890.73,1521.26
					c-14.06,0-28.17,2.4-41.83,7.22c-65.15,23.01-99.44,94.74-76.43,159.9c23.01,65.15,94.74,99.45,159.9,76.43
					c31.56-11.15,56.9-33.92,71.33-64.12c14.43-30.2,16.25-64.21,5.1-95.78l0,0c-11.15-31.56-33.92-56.9-64.12-71.33
					C927.55,1525.39,909.18,1521.26,890.73,1521.26z" class="color060f11 svgShape"></path><path fill="#060f11" d="M923.89,1772.63c-31.27,0-69.58-43-91.61-105.38c-24.59-69.64-18.22-133.25,14.5-144.81
					c16.01-5.66,35.57,2.31,55.03,22.47c18.85,19.52,35.61,48.33,47.19,81.12l0,0c11.58,32.79,16.63,65.73,14.22,92.76
					c-2.49,27.9-12.69,46.38-28.72,52.05C931.09,1772.05,927.53,1772.63,923.89,1772.63z M857.36,1527.07
					c-2.94,0-5.77,0.47-8.45,1.42c-28.85,10.19-33.61,71.49-10.6,136.64c23.01,65.15,65.21,109.89,94.06,99.68
					c13.53-4.78,22.22-21.32,24.48-46.58c2.33-26.13-2.6-58.12-13.88-90.06l0,0c-11.28-31.95-27.53-59.93-45.76-78.81
					C883.09,1534.73,869.26,1527.07,857.36,1527.07z" class="color060f11 svgShape"></path><path fill="#060f11" d="M827.99 1601.1c-17.9 0-35.76-3.67-52.54-10.97-1.62-.7-2.36-2.59-1.66-4.21.71-1.63 2.6-2.36 4.21-1.66 29.17 12.69 61.76 13.84 91.75 3.26 29.99-10.59 54.62-31.95 69.36-60.16.82-1.57 2.74-2.17 4.32-1.35 1.57.82 2.17 2.75 1.35 4.32-15.49 29.64-41.38 52.09-72.9 63.22C857.62 1598.59 842.79 1601.1 827.99 1601.1zM839.1 1767.01c-.5 0-1-.12-1.48-.36-1.56-.82-2.17-2.75-1.35-4.32 15.48-29.64 41.37-52.09 72.9-63.22 31.52-11.13 65.78-9.92 96.43 3.42 1.62.7 2.36 2.59 1.66 4.21-.71 1.62-2.6 2.36-4.21 1.66-29.18-12.69-61.77-13.85-91.75-3.26-29.99 10.59-54.62 31.96-69.35 60.16C841.37 1766.39 840.26 1767.01 839.1 1767.01z" class="color060f11 svgShape"></path><path fill="#060f11" d="M933.44,1771.02c-1.32,0-2.55-0.82-3.02-2.13l-85.59-242.36c-0.59-1.67,0.29-3.49,1.95-4.08
					c1.66-0.58,3.49,0.29,4.08,1.95l85.59,242.36c0.59,1.67-0.29,3.49-1.95,4.08C934.15,1770.96,933.79,1771.02,933.44,1771.02z" class="color060f11 svgShape"></path><path fill="#060f11" d="M769.46,1692.64c-1.32,0-2.55-0.82-3.02-2.13c-0.59-1.67,0.29-3.49,1.95-4.08l242.36-85.6
					c1.66-0.58,3.49,0.29,4.08,1.95c0.59,1.67-0.29,3.49-1.95,4.08l-242.36,85.6C770.17,1692.58,769.81,1692.64,769.46,1692.64z" class="color060f11 svgShape"></path></g><g fill="#000000" class="color000 svgShape"><path fill="#ffd400" d="M372.95,2065.92c0,0,42.85-31.64,39.52-49.2c-3.32-17.56-15.9-12.58-9.73-28.72
				c6.17-16.14,38.21-31.57,30.85-55.3c-7.36-23.73-28.24-13.53-36.55-31.57s-8.07-103.01-80.7-81.88s-18.75,84.73-22.31,90.19
				s-14.48,12.1-9.97,23.97c4.51,11.87,21.84,17.09,19.46,27.77c-2.37,10.68-12.82,30.14-2.85,45.81
				C310.66,2022.66,365.95,2044.87,372.95,2065.92z" class="colorffd400 svgShape"></path><path fill="#060f11" d="M381.14,2134.02c-1.69,0-3.1-1.32-3.19-3.03c-3.07-57.14-11.95-162.04-36.94-222.55
					c-0.67-1.63,0.1-3.5,1.73-4.18c1.63-0.67,3.5,0.1,4.18,1.73c25.36,61.39,34.33,167.1,37.42,224.65
					c0.09,1.76-1.26,3.27-3.02,3.36C381.26,2134.02,381.2,2134.02,381.14,2134.02z" class="color060f11 svgShape"></path><path fill="#060f11" d="M347.98 1930.17c-4.53 0-12.69-1.34-20.02-9.58-1.17-1.32-1.05-3.34.27-4.52 1.31-1.17 3.34-1.06 4.51.26 6.64 7.47 13.9 7.62 16.44 7.4 5.52-6.71 5.97-19.94 5.98-20.08.05-1.76 1.39-3.25 3.29-3.1 1.76.05 3.15 1.52 3.11 3.28-.02.69-.56 16.94-8.47 25.12-.44.45-1 .77-1.61.9C351.32 1929.9 350.02 1930.17 347.98 1930.17zM361.69 1977.58c-.89 0-1.78-.37-2.41-1.1-1.16-1.33-1.02-3.35.31-4.51 12.57-10.92 14.08-27.49 14.1-27.66.15-1.76 1.63-3.05 3.45-2.92 1.76.14 3.07 1.68 2.93 3.44-.06.78-1.69 19.3-16.28 31.97C363.18 1977.32 362.43 1977.58 361.69 1977.58zM367.01 2012.52c-.06 0-.12 0-.18-.01-.74-.04-18.25-1.21-30.38-20.18-.95-1.49-.52-3.47.97-4.42 1.49-.96 3.47-.52 4.42.97 10.3 16.09 24.75 17.2 25.36 17.24 1.76.11 3.1 1.63 2.99 3.38C370.09 2011.21 368.68 2012.52 367.01 2012.52z" class="color060f11 svgShape"></path><path fill="#ffffff" d="M782.5,2182.87c0,0,11.27-23.66-4.13-30.39c-15.4-6.73-42.83,0-42.83,0s21.41-18.18,15.78-32.88
						c-5.64-14.7-25.55-22.17-46.21-6.73c0,0,50.85-55.82,35.32-76.97c-28.18-38.36-104.07,15.44-112.71,64.41
						c0,0-22.17-98.78-60.49-96.54c-38.32,2.24-14.65,67.25-6.39,81.45" class="colorfff svgShape"></path><path fill="#060f11" d="M782.5,2186.07c-0.46,0-0.93-0.1-1.37-0.31c-1.6-0.76-2.27-2.66-1.52-4.26c0.06-0.12,5.84-12.49,2.8-20.6
						c-0.96-2.55-2.7-4.34-5.33-5.49c-14.24-6.22-40.52,0.11-40.79,0.17c-1.42,0.35-2.93-0.33-3.6-1.65
						c-0.68-1.32-0.36-2.93,0.77-3.89c5.47-4.66,18.81-19.01,14.86-29.3c-2.29-5.98-7.25-10.46-13.61-12.3
						c-8.54-2.46-18.37,0.02-27.7,6.99c-1.31,0.99-3.17,0.81-4.28-0.41c-1.11-1.22-1.11-3.08,0-4.3
						c13.65-14.99,46.57-57.31,35.1-72.92c-9.62-13.09-24.32-12.88-34.96-10.4c-32.24,7.53-66.56,42.55-72.02,73.46
						c-0.26,1.5-1.55,2.61-3.07,2.64c-1.38,0.11-2.86-1.01-3.19-2.49c-5.93-26.41-27.45-94.08-56.12-94.08
						c-0.36,0-0.71,0.01-1.07,0.03c-7.21,0.42-12.14,3.27-15.05,8.7c-9.4,17.53,4.41,56.21,11.24,67.95
						c0.89,1.53,0.37,3.49-1.15,4.37c-1.53,0.89-3.49,0.37-4.37-1.15c-5.87-10.09-22.97-52.55-11.35-74.19
						c4-7.45,10.83-11.5,20.32-12.06c32.69-1.9,53.44,60.64,60.82,87.35c11.15-29.69,43.24-59.67,73.57-66.76
						c17.69-4.13,32.46,0.42,41.57,12.84c12.37,16.83-10.4,50.24-25.05,68.64c6.34-1.9,12.65-2.05,18.55-0.35
						c8.3,2.4,14.79,8.29,17.81,16.15c3.99,10.42-3.21,21.79-9.38,29.02c9.77-1.41,24.5-2.39,34.72,2.07
						c4.25,1.85,7.2,4.92,8.77,9.12c3.98,10.66-2.73,24.97-3.02,25.57C784.84,2185.39,783.7,2186.07,782.5,2186.07z" class="color060f11 svgShape"></path><path fill="#060f11" d="M623.65,2187.62c-0.14,0-0.28-0.01-0.42-0.03c-1.75-0.23-2.98-1.84-2.75-3.59
				c2.51-18.94-3.17-20.28-11.77-22.31c-2.75-0.65-5.59-1.32-8.33-2.62c-6.79-3.19-4.29-11.29-1.64-19.87
				c4.17-13.51,6.51-24.36-4.3-30.82c-11.17-6.67-26.93,3.41-42.18,13.17c-13.48,8.63-26.24,16.77-37.27,14.79
				c-13.07-2.32-12.91-24.34-12.71-49.83c0.2-25.91,0.42-55.27-12.93-64.8c-8.81-6.28-18.28-8.11-28.12-5.44
				c-16.31,4.42-32.25,20.9-42.66,44.08c-1.52,3.39-3.19,9.02-5.13,15.55c-5.94,20-14.08,47.4-30.58,57.66
				c-1.5,0.94-3.47,0.47-4.4-1.03c-0.93-1.5-0.47-3.47,1.03-4.4c14.44-8.97,22.5-36.1,27.83-54.04c2-6.74,3.73-12.57,5.43-16.34
				c11.18-24.91,28.68-42.71,46.82-47.63c11.61-3.16,23.2-0.94,33.51,6.41c16.06,11.46,15.82,42.6,15.61,70.06
				c-0.16,20.7-0.32,42.11,7.44,43.49c8.59,1.53,20.84-6.29,32.7-13.88c16.87-10.8,34.33-21.97,48.91-13.27
				c15.98,9.56,10.65,26.79,7.13,38.2c-1.57,5.06-3.51,11.36-1.75,12.19c2.14,1.01,4.53,1.58,7.07,2.18
				c8.87,2.1,19.9,4.7,16.64,29.38C626.61,2186.45,625.23,2187.62,623.65,2187.62z" class="color060f11 svgShape"></path><path fill="#060f11" d="M267.04 2187.62c-.83 0-1.65-.32-2.28-.96-1.24-1.26-1.22-3.28.04-4.52 8.56-8.41 19.95-22.95 18.52-28.95-1.97-8.41-.28-39.75 13.79-53.25 6.24-5.99 14.27-7.83 23.22-5.34 15.9 4.43 24.15 15.04 30.78 23.57 7.94 10.22 12.6 15.39 23.39 12.19 1.69-.5 3.36-1.27 4.96-2.26 1.5-.93 3.47-.47 4.4 1.03.93 1.5.47 3.47-1.03 4.4-2.09 1.3-4.28 2.29-6.52 2.96-15.51 4.6-22.67-4.63-30.27-14.4-6.36-8.19-13.58-17.48-27.45-21.34-6.83-1.91-12.43-.67-17.08 3.79-11.94 11.45-13.64 40.15-12 47.16 2.79 11.61-16.38 31.18-20.25 34.98C268.66 2187.32 267.85 2187.62 267.04 2187.62zM555.53 2186.35c-.21 0-.42-.02-.64-.06-1.73-.35-2.85-2.04-2.5-3.77 2.69-13.28 8.94-25.58 18.09-35.59 1.19-1.3 3.22-1.39 4.51-.2 1.31 1.19 1.4 3.21.2 4.52-8.36 9.15-14.08 20.4-16.54 32.54C558.35 2185.31 557.02 2186.35 555.53 2186.35zM454.62 2184.71c-1.6 0-2.98-1.2-3.17-2.82-4.62-38.89-.96-79.23 10.58-116.67.52-1.69 2.3-2.65 4-2.11 1.69.52 2.63 2.31 2.11 4-11.28 36.59-14.86 76.02-10.34 114.02.21 1.75-1.05 3.35-2.8 3.55C454.88 2184.7 454.75 2184.71 454.62 2184.71z" class="color060f11 svgShape"></path><path fill="#060f11" d="M356.61 2180.04c-.79 0-1.58-.29-2.21-.88-11.39-10.84-20.84-23.43-28.09-37.39-.81-1.57-.2-3.5 1.36-4.31 1.57-.82 3.5-.2 4.31 1.37 6.92 13.34 15.94 25.35 26.83 35.71 1.28 1.22 1.33 3.24.11 4.52C358.3 2179.71 357.46 2180.04 356.61 2180.04zM659.52 2174.17c-.02 0-.05 0-.07 0-1.76-.04-3.17-1.5-3.13-3.27.64-29.12 11.1-57.61 29.46-80.22 1.12-1.37 3.13-1.58 4.5-.47 1.37 1.11 1.58 3.13.47 4.5-17.47 21.51-27.43 48.62-28.04 76.33C662.68 2172.79 661.25 2174.17 659.52 2174.17zM701.44 2168.41c-.17 0-.34-.01-.51-.04-1.74-.28-2.93-1.92-2.65-3.67 1.72-10.68 5.63-21.18 11.3-30.38.92-1.5 2.9-1.97 4.4-1.05 1.5.93 1.97 2.9 1.05 4.4-5.23 8.49-8.84 18.19-10.43 28.04C704.34 2167.29 702.98 2168.41 701.44 2168.41zM593.22 2085.21c-1.42 0-2.72-.95-3.09-2.39-2.34-9.02-5.78-17.75-10.2-25.95-.84-1.55-.26-3.49 1.3-4.33 1.56-.84 3.49-.26 4.33 1.3 4.66 8.65 8.28 17.86 10.76 27.37.45 1.71-.58 3.45-2.29 3.9C593.76 2085.18 593.49 2085.21 593.22 2085.21z" class="color060f11 svgShape"></path></g><g fill="#000000" class="color000 svgShape"><path fill="#4a4ddc" d="M840.7,456.19l15.15-18.58c2.4-2.94,6.89-2.94,9.29,0l15.15,18.58c3.19,3.91,0.41,9.78-4.64,9.78h-30.3
			C840.3,465.97,837.51,460.11,840.7,456.19z" class="color4a4ddc svgShape"></path></g></svg></g></svg>