<svg xmlns="http://www.w3.org/2000/svg" xmlns:xlink="http://www.w3.org/1999/xlink" width="500" zoomAndPan="magnify"
    viewBox="0 0 375 374.999991" height="500" preserveAspectRatio="xMidYMid meet" version="1.0">
    <rect x="-37.5" width="450" fill="#ffffff" y="-37.499999" height="449.999989" fill-opacity="1" />
    <rect x="-37.5" width="450" fill="#f4f6fc" y="-37.499999" height="449.999989" fill-opacity="1" />
    <path fill="#12229d"
        d="M 139.644531 319.886719 L 138.46875 158.246094 L 155.972656 158.117188 L 157.152344 319.757812 Z M 83.859375 320.109375 L 82.679688 158.464844 L 100.1875 158.339844 L 101.367188 319.980469 Z M 357.273438 -9.703125 L 17.066406 -9.703125 C 2.285156 -9.703125 -9.699219 2.285156 -9.699219 17.066406 L -9.699219 41.738281 L 186.546875 41.738281 C 230.140625 41.738281 266.765625 55.132812 292.453125 80.480469 C 317.402344 105.09375 330.589844 139.28125 330.589844 179.34375 L 330.589844 180.085938 C 330.589844 220.273438 317.265625 254.832031 292.058594 280.03125 C 265.953125 306.128906 228.992188 319.929688 185.175781 319.929688 L 169.640625 319.929688 L 169.640625 270.105469 L 190.742188 270.105469 C 246.46875 270.105469 279.742188 236.9375 279.742188 181.382812 L 279.742188 180.28125 C 279.742188 124.726562 246.46875 91.5625 190.742188 91.5625 L 100.351562 91.5625 L 100.351562 105.792969 L 187.574219 105.792969 C 233.046875 105.792969 262.429688 135.101562 262.429688 180.460938 L 262.429688 181.203125 C 262.429688 203.988281 255.230469 223.011719 241.617188 236.222656 C 228.375 249.078125 209.6875 255.875 187.574219 255.875 L 169.640625 255.875 L 169.640625 238.367188 L 187.574219 238.367188 C 223.484375 238.367188 244.925781 217 244.925781 181.203125 L 244.925781 180.460938 C 244.925781 144.667969 223.484375 123.296875 187.574219 123.296875 L 82.84375 123.296875 L 82.84375 74.054688 L 190.742188 74.054688 C 222.269531 74.054688 248.898438 83.769531 267.761719 102.148438 C 287.050781 120.945312 297.246094 147.964844 297.246094 180.28125 L 297.246094 181.382812 C 297.246094 213.914062 287.046875 241.007812 267.746094 259.738281 C 248.957031 277.972656 222.328125 287.613281 190.742188 287.613281 L 187.144531 287.613281 L 187.144531 302.402344 C 263.71875 301.59375 313.085938 253.769531 313.085938 180.085938 L 313.085938 179.34375 C 313.085938 105.261719 264.59375 59.242188 186.546875 59.242188 L -9.699219 59.242188 L -9.699219 357.273438 C -9.699219 372.054688 2.285156 384.039062 17.066406 384.039062 L 111.492188 384.039062 L 110.394531 158.261719 L 127.902344 158.136719 L 128.996094 384.039062 L 357.273438 384.039062 C 372.054688 384.039062 384.039062 372.054688 384.039062 357.273438 L 384.039062 17.066406 C 384.039062 2.285156 372.054688 -9.703125 357.273438 -9.703125 "
        fill-opacity="1" fill-rule="nonzero" />
</svg>